<?xml version="1.0" standalone="no"?>
<!DOCTYPE svg PUBLIC "-//W3C//DTD SVG 20010904//EN"
 "http://www.w3.org/TR/2001/REC-SVG-20010904/DTD/svg10.dtd">
<svg version="1.0" xmlns="http://www.w3.org/2000/svg"
 width="200.000000pt" height="200.000000pt" viewBox="0 0 200.000000 200.000000"
 preserveAspectRatio="xMidYMid meet">

<g transform="translate(0.000000,200.000000) scale(0.100000,-0.100000)"
fill="#000000" stroke="none">
<path d="M0 1755 c0 -135 2 -245 4 -245 2 0 68 90 147 200 l144 200 695 0 695
0 140 -181 c77 -99 148 -190 157 -202 17 -21 18 -11 18 226 l0 247 -1000 0
-1000 0 0 -245z"/>
<path d="M148 1681 c-119 -167 -148 -215 -148 -241 0 -28 82 -148 496 -727
273 -382 497 -693 499 -691 1 2 130 178 286 393 l283 390 0 70 -1 70 75 110
c42 61 107 154 145 208 39 56 66 104 63 113 -4 11 -33 14 -151 14 -121 0 -145
2 -145 15 0 8 -9 19 -21 25 -20 11 -19 13 18 46 l38 34 132 0 c72 0 134 3 137
8 5 8 -165 250 -186 263 -7 5 -37 9 -65 9 -50 0 -53 2 -53 25 0 14 5 25 11 25
5 0 8 4 4 9 -3 5 5 17 17 25 20 15 -35 16 -632 16 l-655 -1 -147 -208z m419
67 c-2 -7 -17 -57 -32 -110 l-28 -98 -164 0 -164 0 41 55 c22 30 58 80 80 110
l41 55 115 0 c89 0 115 -3 111 -12z m744 -85 c17 -54 34 -104 37 -110 3 -10
-69 -13 -342 -13 -190 0 -346 3 -346 8 0 4 16 53 36 110 l37 102 272 0 273 0
33 -97z m430 -11 c42 -59 75 -110 72 -114 -7 -12 -311 -10 -318 3 -12 18 -63
204 -58 212 2 4 55 7 116 6 l112 0 76 -107z m-1095 -716 c79 -236 141 -432
139 -435 -8 -7 -35 33 -31 45 2 6 -56 188 -129 405 l-133 394 -151 3 -152 3
24 -33 c109 -147 538 -761 534 -764 -6 -7 -558 772 -564 797 -5 19 -1 19 157
17 l163 -3 143 -429z m690 417 c-4 -10 -78 -240 -165 -511 -87 -271 -161 -496
-165 -499 -3 -4 -7 -4 -9 -2 -2 2 -49 148 -107 324 -57 176 -131 407 -166 513
l-62 192 340 0 c319 0 339 -1 334 -17z m485 4 c9 -3 -606 -880 -620 -885 -7
-2 -5 13 5 40 21 58 294 851 294 853 0 3 311 -6 321 -8z"/>
<path d="M403 1743 l-62 -4 -66 -89 c-36 -49 -65 -92 -65 -95 0 -3 64 -4 142
-3 l142 3 21 70 c12 39 25 82 29 98 7 30 18 29 -141 20z"/>
<path d="M823 1743 l-81 -4 -31 -85 c-17 -47 -31 -87 -31 -90 0 -2 146 -4 325
-4 l324 0 -32 93 -32 92 -180 1 c-99 0 -217 -1 -262 -3z"/>
<path d="M1453 1726 c3 -9 16 -51 28 -96 l22 -80 144 0 c78 0 143 3 142 8 0 4
-29 45 -63 92 l-62 85 -108 3 c-93 2 -108 1 -103 -12z"/>
<path d="M695 1323 c12 -52 307 -945 310 -941 6 6 305 943 305 956 0 9 -69 12
-311 12 l-311 0 7 -27z"/>
<path d="M1510 1347 c0 -1 -63 -185 -139 -407 -77 -222 -139 -405 -138 -406 3
-3 561 794 565 807 2 5 -56 9 -142 9 -80 0 -146 -1 -146 -3z"/>
<path d="M1498 691 l-497 -686 496 -3 c273 -1 498 -1 500 1 2 2 2 312 1 689
l-3 685 -497 -686z"/>
<path d="M0 687 l0 -687 490 0 c270 0 490 3 490 6 0 7 -946 1331 -966 1354
-12 12 -14 -95 -14 -673z"/>
</g>
</svg>
